# xmcd CD database file
#
# Track frame offsets:
#	150
#	6218
#	25469
#	44567
#	62518
#	77310
#	92068
#	112499
#	132077
#	142226
#	155158
#	167182
#	179731
#	191740
#	197181
#
# Disc length: 2733 seconds
#
# Revision: 2
# Processed by: cddbd v1.4b41PL1 Copyright (c) Steve Scherf et al.
# Submitted via: Feurio! 1.50.2ß - http://www.feurio.com
#
DISCID=e10aab0f
DTITLE=Various Artist - Stir of Echoes
DYEAR=1900
DGENRE=
TTITLE0=Empty Couch - Score
TTITLE1=Moist - Breathe
TTITLE2=Dishwalla - Stay Awake
TTITLE3=Wild Strawberries - Mirror Mirror
TTITLE4=Steve Wynn - Nothing But The Shell
TTITLE5=Gob - Paint It Black
TTITLE6=Poe - Hello
TTITLE7=Beth Orton - It's Not The Spotlight
TTITLE8=Kidnapping Jake - Score
TTITLE9=Nightmare Lovemaking - Score
TTITLE10=Deja Vue - Score
TTITLE11=Digging - Score
TTITLE12=Neil - Score
TTITLE13=Feathers - Score
TTITLE14=First Hypnotism - Score
EXTD=
EXTT0=
EXTT1=
EXTT2=
EXTT3=
EXTT4=
EXTT5=
EXTT6=
EXTT7=
EXTT8=
EXTT9=
EXTT10=
EXTT11=
EXTT12=
EXTT13=
EXTT14=
PLAYORDER=
